<?xml version="1.0" standalone="no"?><!DOCTYPE svg PUBLIC "-//W3C//DTD SVG 1.1//EN" "http://www.w3.org/Graphics/SVG/1.1/DTD/svg11.dtd"><svg t="1709190841544" class="icon" viewBox="0 0 1024 1024" version="1.1" xmlns="http://www.w3.org/2000/svg" p-id="2766" xmlns:xlink="http://www.w3.org/1999/xlink" width="200" height="200"><path d="M303.84 196c91.328-56 186.016-73.696 284-53.024 98.016 20.672 177.344 74.72 238.016 162.016l18.016 31.04v0.96a19.744 19.744 0 0 1 0.512 14.528 27.264 27.264 0 0 1-8.512 12.48l-352 228a21.92 21.92 0 0 1-16 3.52 20.032 20.032 0 0 1-12.992-8.544l-18.016-28c-8-13.312-10.496-26.976-7.488-40.96 3.008-13.984 10.88-25.344 23.488-34.016l224.992-147.04a19.264 19.264 0 0 0 9.504-12.96 21.888 21.888 0 0 0-3.488-16 9.44 9.44 0 0 0-4-4.992C633.92 266.336 582.4 246.336 525.376 243.008c-56.96-3.36-110.496 10.976-160.512 42.976-62.656 43.328-101.504 100.032-116.48 170.048-15.04 70.016-2.528 137.344 37.472 202.016 42.688 61.952 98.88 100.48 168.512 115.456 69.696 15.04 136.864 2.496 201.504-37.504 13.344-8 27.008-10.336 40.992-6.976 14.016 3.328 25.344 11.328 34.016 24l18.016 26.016c2.688 5.344 3.52 10.496 2.496 15.456a21.44 21.44 0 0 1-7.488 12.544 152.64 152.64 0 0 1-28.992 20.96c-91.328 56-185.984 73.664-284 53.024-97.984-20.672-177.344-75.04-238.016-163.04-56-91.328-73.504-185.984-52.48-284 20.96-98.016 75.456-177.312 163.456-237.984z m526.016 305.024a24.896 24.896 0 0 1 16-2.528c5.344 1.024 9.664 3.84 12.992 8.544l23.04 35.008c9.312 15.328 12.32 31.168 8.96 47.456-3.328 16.32-12.352 29.856-27.008 40.544l-36 22.976a17.568 17.568 0 0 1-15.008 3.04 26.72 26.72 0 0 1-14.016-8.992L752.8 576a20.16 20.16 0 0 1-3.008-16 22.08 22.08 0 0 1 8.992-12.96l71.072-46.08z" p-id="2767"></path></svg>