<?xml version="1.0" standalone="no"?><!DOCTYPE svg PUBLIC "-//W3C//DTD SVG 1.1//EN" "http://www.w3.org/Graphics/SVG/1.1/DTD/svg11.dtd"><svg t="1709190694370" class="icon" viewBox="0 0 1024 1024" version="1.1" xmlns="http://www.w3.org/2000/svg" p-id="4874" xmlns:xlink="http://www.w3.org/1999/xlink" width="200" height="200"><path d="M815.1 807.3H225c-9.9 0-18-8.1-18-18v-4c0-9.9 8.1-18 18-18h590.1c9.9 0 18 8.1 18 18v4c0 9.9-8.1 18-18 18zM815.1 556.3H225c-9.9 0-18-8.1-18-18v-4c0-9.9 8.1-18 18-18h590.1c9.9 0 18 8.1 18 18v4c0 9.9-8.1 18-18 18z" fill="#C6C6C6" p-id="4875"></path><path d="M871 1024H169.1c-46.3 0-83.9-37.7-83.9-83.9V91.9C85.3 45.7 122.9 8 169.1 8H871c46.3 0 83.9 37.7 83.9 83.9V940c0 46.3-37.6 84-83.9 84zM169.1 48c-24.2 0-43.9 19.7-43.9 43.9V940c0 24.2 19.7 43.9 43.9 43.9H871c24.2 0 43.9-19.7 43.9-43.9V91.9c0-24.2-19.7-43.9-43.9-43.9H169.1z" fill="#C6C6C6" p-id="4876"></path><path d="M815.1 305.4H225c-9.9 0-18-8.1-18-18v-4c0-9.9 8.1-18 18-18h590.1c9.9 0 18 8.1 18 18v4c0 9.9-8.1 18-18 18z" fill="#C6C6C6" p-id="4877"></path></svg>