<?xml version="1.0" standalone="no"?><!DOCTYPE svg PUBLIC "-//W3C//DTD SVG 1.1//EN" "http://www.w3.org/Graphics/SVG/1.1/DTD/svg11.dtd"><svg t="1709190127007" class="icon" viewBox="0 0 1024 1024" version="1.1" xmlns="http://www.w3.org/2000/svg" p-id="1833" xmlns:xlink="http://www.w3.org/1999/xlink" width="200" height="200"><path d="M619.3 548.9c-1.7-0.1-3.5-0.5-5.2-1.3-7.9-3.3-11.5-12.5-8.2-20.3L659.3 402c3.3-7.9 12.5-11.5 20.3-8.2 7.9 3.3 11.5 12.5 8.2 20.3l-53.4 125.3c-2.7 6.3-8.8 9.9-15.1 9.5z m-117.6-6c-1.7-0.1-3.5-0.5-5.2-1.3-7.9-3.3-11.5-12.5-8.2-20.3L541.7 396c3.3-7.9 12.5-11.5 20.3-8.2 7.9 3.3 11.5 12.5 8.2 20.3l-53.4 125.3c-2.6 6.3-8.8 9.8-15.1 9.5zM390 536c-1.7-0.1-3.5-0.5-5.2-1.3-7.9-3.3-11.5-12.5-8.2-20.3L430 389.1c3.3-7.9 12.5-11.5 20.3-8.2 7.9 3.3 11.5 12.5 8.2 20.3l-53.4 125.3c-2.6 6.3-8.8 9.8-15.1 9.5z m0 0" fill="#595757" p-id="1834"></path><path d="M465.2 526.6c-5.9 2.1-12.8 0.5-17.2-4.7l-87.1-104.8c-5.4-6.6-4.6-16.4 2-21.8 6.6-5.5 16.4-4.6 21.8 2l87.1 104.8c5.4 6.6 4.6 16.4-2 21.8-1.4 1.3-3 2.1-4.6 2.7z m116.9 1.7c-5.9 2.1-12.8 0.5-17.2-4.7l-87.1-104.8c-5.5-6.6-4.6-16.4 2-21.8 6.6-5.5 16.4-4.6 21.8 2l87.1 104.8c5.5 6.6 4.6 16.4-2 21.8-1.4 1.2-3 2.1-4.6 2.7z m117.8 7.6c-5.9 2.1-12.8 0.5-17.2-4.7l-87.1-104.8c-5.4-6.6-4.6-16.4 2-21.8 6.6-5.5 16.4-4.6 21.8 2l87.1 104.8c5.4 6.6 4.6 16.4-2 21.8-1.4 1.2-3 2.1-4.6 2.7z m0 0M795.4 459.8c0 20.5 16.6 37.1 37.1 37.1s37.1-16.6 37.1-37.1-16.6-37.1-37.1-37.1-37.1 16.6-37.1 37.1z m0 0" fill="#595757" p-id="1835"></path><path d="M848.3 334.1c-46-32.3-140.2-86.6-254.5-86.6-94.3 0-174 34.6-224.1 63.5-51.7 29.9-89.3 63.1-111.7 89.4-14.8-16.8-37-39.9-63.5-60.2-41.1-31.6-79.7-46.8-114.4-45.3-6.3 0.3-11.9 3.7-15.2 9.1-3.1 5.4-3.4 12-0.7 17.7C91.9 378 122.5 446.7 124 460c-0.3 7.2-7.5 38.7-12.9 61.8-4.8 20.8-9.9 42.4-13.2 59.4-5 25.2-7.2 39.9 4.1 48.7 6.1 4.8 14.3 5.5 21.2 1.8 42.6-22.1 95.1-72.6 127.7-107.8 9.6 14.3 41.2 44.5 42.9 45.3 44.8 38.5 170.7 108.6 300 102.9 120.5-5.3 210.8-45.7 253.7-73 67.6-42.8 109.7-96.2 109.7-139.3 0-32.3-54.8-87.7-108.9-125.7z m-20.6 233.8c-39.6 25.1-122.8 69-233.9 67.1-103.5-1.7-253.7-58.6-309.4-129.7-1.1-1.4-10.5-14.8-12.7-20.3-2.5-6.1-7.9-10.3-14.3-11.4-6.4-1.1-12.9 1.3-17.1 6.2-23.8 27.8-66.3 71.2-104.4 99.6 3.4-16.2 7.9-35.2 11.1-49.2 9-38.2 14-60.3 14-70.4 0-5.9 0-17-32.5-88.6-5.6-12.3-11.1-24.3-16-34.6 46.9 14.9 97.9 62.7 131.5 105.2 3.7 4.7 9.5 7.3 15.4 7 6-0.3 11.4-3.5 14.7-8.5 15-23.1 53.9-62.4 114.1-97.1 46.3-26.7 119.4-58.5 205.6-58.5 102.4 0 188 48.6 229.9 77.6 64.1 44.3 94.7 87.7 96.4 97.8-0.3 24-29.2 67.8-92.4 107.8z" fill="#595757" p-id="1836"></path></svg>